<svg width="129" height="14" viewBox="0 0 129 14" fill="none" xmlns="http://www.w3.org/2000/svg">
<path d="M0.195312 13.6015V0.333781L11.6398 0.296875C13.1482 0.296875 14.2653 0.605963 14.9959 1.21953C15.7265 1.83309 16.0894 2.75574 16.0894 3.98287C16.0894 5.20999 15.6699 6.10958 14.8356 6.68162C15.3918 6.98148 15.8066 7.37361 16.0706 7.86261C16.3393 8.35162 16.4712 8.98364 16.4712 9.74944C16.4712 11.0042 16.1083 11.9546 15.3777 12.605C14.6471 13.2555 13.53 13.5831 12.0216 13.5831L0.195312 13.6015ZM11.2816 2.67731H3.24027V5.65286H11.2816C12.4364 5.65286 13.0115 5.14541 13.0115 4.12588C13.0115 3.10635 12.4364 2.6727 11.2816 2.6727V2.67731ZM11.6634 8.03792H3.24027V11.2026H11.6634C12.8182 11.2026 13.3933 10.6675 13.3933 9.60181C13.3933 8.53615 12.8182 8.03792 11.6634 8.03792Z" fill="#27357A"/>
<path d="M19.3242 13.6015V0.296875H30.7122C32.1215 0.296875 33.2104 0.642869 33.9928 1.33947C34.7706 2.03607 35.1618 3.0879 35.1618 4.50416C35.1618 5.70822 34.879 6.64933 34.3039 7.33209C33.7336 8.01485 32.9228 8.44388 31.8717 8.61457L35.0109 13.6015H31.5512L28.6429 8.70684H22.3692V13.6015H19.3289H19.3242ZM30.3539 2.71422H22.3692V6.27104L30.3539 6.28949C30.9101 6.28949 31.3391 6.1511 31.636 5.87891C31.933 5.60673 32.0838 5.14541 32.0838 4.49955C32.0838 3.8537 31.933 3.37853 31.636 3.11557C31.3391 2.84801 30.9101 2.71422 30.3539 2.71422Z" fill="#27357A"/>
<path d="M37.0664 13.6015L43.1893 0.296875H47.884L54.0069 13.6015H50.698L49.4065 10.792H41.6668L40.3753 13.6015H37.0664ZM42.7698 8.37007H48.3035L45.6592 2.61734H45.4141L42.7698 8.37007Z" fill="#27357A"/>
<path d="M56.2852 13.6115V0.34375H59.3254V5.75971H63.8504L68.3189 0.34375H72.1039L66.5136 6.96838L72.1039 13.6115H68.3189L63.8316 8.17706H59.3254V13.6115H56.2852Z" fill="#27357A"/>
<path d="M74.3867 13.6015V0.296875H89.2957V2.71422H77.4317V5.65286H88.1927V8.07021H77.4317V11.1795H89.2957V13.5969H74.3867V13.6015Z" fill="#27357A"/>
<path d="M99.543 13.6984C98.1619 13.6984 97.0731 13.5231 96.2718 13.1679C95.4752 12.8126 94.9049 12.2775 94.5608 11.5578C94.2167 10.8382 94.047 9.93396 94.047 8.84062V0.296875H97.0872V8.84062C97.0872 9.78173 97.3135 10.4276 97.7613 10.769C98.2091 11.1103 98.9774 11.281 100.052 11.281H103.724C104.803 11.281 105.567 11.1103 106.015 10.769C106.463 10.4276 106.689 9.78634 106.689 8.84062V0.296875H109.729V8.84062C109.729 9.93396 109.559 10.8382 109.215 11.5578C108.871 12.2775 108.301 12.8126 107.504 13.1679C106.708 13.5231 105.614 13.6984 104.233 13.6984H99.5383H99.543Z" fill="#27357A"/>
<path d="M113.16 13.6015V0.296875H124.548C125.957 0.296875 127.046 0.642869 127.829 1.33947C128.606 2.03607 128.998 3.08789 128.998 4.50416C128.998 5.92043 128.606 6.97226 127.829 7.66886C127.051 8.36546 125.957 8.71145 124.548 8.71145H116.2V13.6061H113.16V13.6015ZM124.19 2.71422H116.205V6.27104L124.19 6.28949C124.746 6.28949 125.175 6.1511 125.472 5.87891C125.769 5.60673 125.92 5.14541 125.92 4.49955C125.92 3.8537 125.769 3.37853 125.472 3.11557C125.175 2.84801 124.746 2.71422 124.19 2.71422Z" fill="#27357A"/>
</svg>
