<svg width="31" height="30" viewBox="0 0 31 30" fill="none" xmlns="http://www.w3.org/2000/svg">
<path d="M16.7184 30.0001C24.4136 30.0001 30.6517 23.8947 30.6517 16.3633C30.6517 8.83196 24.4136 2.72656 16.7184 2.72656C9.0233 2.72656 2.78516 8.83196 2.78516 16.3633C2.78516 23.8947 9.0233 30.0001 16.7184 30.0001Z" fill="#F1BE20"/>
<path d="M16.6671 0V11.8192C14.1265 11.8468 12.0761 13.8721 12.0761 16.3632C12.0761 16.414 12.0761 16.4647 12.0761 16.5155H0C0 16.4647 0 16.414 0 16.3632C0 8.08704 6.28318 1.24097 14.4376 0.152237C15.1635 0.0553591 15.913 0.00461326 16.6671 0Z" fill="#27357A"/>
</svg>
